<svg width="126" height="134" viewBox="0 0 126 134" fill="none" xmlns="http://www.w3.org/2000/svg">
<g id="&#60;Group&#62;">
<g id="&#60;Group&#62;_2">
<path id="&#60;Path&#62;" d="M73.7547 133.175H52.3184V32.5643H73.7547V133.175Z" fill="#7772F2"/>
</g>
<g id="&#60;Group&#62;_3">
<path id="&#60;Path&#62;_2" d="M63.6254 29.3697C58.0228 29.3697 53.6001 28.1294 50.3571 25.6488C47.1262 23.1681 45.5107 19.6105 45.5107 14.976C45.5107 10.3414 47.102 6.81408 50.2845 4.39395C53.4669 1.96172 57.9139 0.745605 63.6254 0.745605C69.228 0.745605 73.6206 1.96172 76.803 4.39395C79.9855 6.81408 81.5768 10.3414 81.5768 14.976C81.5768 19.6105 79.9855 23.1681 76.803 25.6488C73.6206 28.1294 69.228 29.3697 63.6254 29.3697Z" fill="#F279C8"/>
</g>
<g id="&#60;Group&#62;_4">
<path id="&#60;Path&#62;_3" d="M18.7211 32.7276C13.1185 32.7276 8.69572 31.4873 5.45274 29.0067C2.22187 26.526 0.606445 22.9684 0.606445 18.3339C0.606445 13.6993 2.19769 10.1659 5.38016 7.73371C8.56263 5.31358 13.0096 4.10352 18.7211 4.10352C24.3237 4.10352 28.7162 5.31358 31.8987 7.73371C35.0812 10.1659 36.6724 13.6993 36.6724 18.3339C36.6724 22.9684 35.0812 26.526 31.8987 29.0067C28.7162 31.4873 24.3237 32.7276 18.7211 32.7276Z" fill="#EABE5C"/>
</g>
<g id="&#60;Group&#62;_5">
<g id="&#60;Group&#62;_6">
<path id="&#60;Path&#62;_4" d="M63.0629 81.6084H9.42676V35.8497H27.5777V63.4574H63.0629V81.6084Z" fill="#7772F2"/>
</g>
<g id="&#60;Group&#62;_7">
<path id="&#60;Path&#62;_5" d="M116.625 97.5086H62.9893V79.3576H98.4744V51.7318H116.625V97.5086Z" fill="#7772F2"/>
</g>
</g>
<g id="&#60;Group&#62;_8">
<path id="&#60;Path&#62;_6" d="M107.278 48.6098C112.881 48.6098 117.304 47.3695 120.547 44.8889C123.778 42.4082 125.393 38.8506 125.393 34.2161C125.393 29.5815 123.802 26.0542 120.619 23.6341C117.437 21.2018 112.99 19.9857 107.278 19.9857C101.676 19.9857 97.2833 21.2018 94.1009 23.6341C90.9184 26.0542 89.3271 29.5815 89.3271 34.2161C89.3271 38.8506 90.9184 42.4082 94.1009 44.8889C97.2833 47.3695 101.676 48.6098 107.278 48.6098Z" fill="#EABE5C"/>
</g>
</g>
</svg>
