<svg width="24" height="24" viewBox="0 0 24 24" fill="none" xmlns="http://www.w3.org/2000/svg">
<g id="Icone. - IA">
<path id="Vector" d="M20.0004 2.99011V6.97688M22.0004 4.98349H18.0004M4.00043 16.9438V18.9372M5.00043 17.9405H3.00043M9.93743 15.4488C9.84815 15.1039 9.66777 14.7891 9.41505 14.5372C9.16232 14.2853 8.8465 14.1055 8.50043 14.0165L2.36543 12.4398C2.26076 12.4101 2.16864 12.3473 2.10304 12.2608C2.03744 12.1743 2.00195 12.0688 2.00195 11.9604C2.00195 11.8519 2.03744 11.7464 2.10304 11.6599C2.16864 11.5734 2.26076 11.5106 2.36543 11.4809L8.50043 9.90317C8.84638 9.81428 9.16212 9.63464 9.41483 9.38294C9.66754 9.13124 9.84799 8.81667 9.93743 8.47192L11.5194 2.35721C11.5488 2.25247 11.6118 2.1602 11.6987 2.09447C11.7857 2.02874 11.8918 1.99316 12.0009 1.99316C12.11 1.99316 12.2162 2.02874 12.3031 2.09447C12.39 2.1602 12.453 2.25247 12.4824 2.35721L14.0634 8.47192C14.1527 8.81685 14.3331 9.13163 14.5858 9.38352C14.8385 9.6354 15.1544 9.81519 15.5004 9.90417L21.6354 11.4799C21.7409 11.5089 21.834 11.5716 21.9003 11.6584C21.9666 11.7452 22.0025 11.8513 22.0025 11.9604C22.0025 12.0694 21.9666 12.1755 21.9003 12.2623C21.834 12.3491 21.7409 12.4118 21.6354 12.4408L15.5004 14.0165C15.1544 14.1055 14.8385 14.2853 14.5858 14.5372C14.3331 14.7891 14.1527 15.1039 14.0634 15.4488L12.4814 21.5635C12.452 21.6682 12.389 21.7605 12.3021 21.8262C12.2152 21.892 12.109 21.9275 11.9999 21.9275C11.8908 21.9275 11.7847 21.892 11.6977 21.8262C11.6108 21.7605 11.5478 21.6682 11.5184 21.5635L9.93743 15.4488Z" stroke="#FCFDFE" stroke-width="2" stroke-linecap="round" stroke-linejoin="round"/>
</g>
</svg>
