<svg width="49" height="52" viewBox="0 0 49 52" fill="none" xmlns="http://www.w3.org/2000/svg">
<g id="&#60;Group&#62;">
<g id="&#60;Group&#62;_2">
<path id="&#60;Path&#62;" d="M20.2981 51.7022H28.5361V13.0371H20.2981V51.7022Z" fill="#7772F2"/>
</g>
<g id="&#60;Group&#62;_3">
<path id="&#60;Path&#62;_2" d="M24.1869 11.8099C26.34 11.8099 28.0397 11.3333 29.286 10.3799C30.5276 9.42662 31.1484 8.05943 31.1484 6.27835C31.1484 4.49728 30.5369 3.14171 29.3139 2.21164C28.0908 1.27693 26.3819 0.80957 24.1869 0.80957C22.0338 0.80957 20.3457 1.27693 19.1227 2.21164C17.8997 3.14171 17.2881 4.49728 17.2881 6.27835C17.2881 8.05943 17.8997 9.42662 19.1227 10.3799C20.3457 11.3333 22.0338 11.8099 24.1869 11.8099Z" fill="#F279C8"/>
</g>
<g id="&#60;Group&#62;_4">
<path id="&#60;Path&#62;_3" d="M41.4447 13.1C43.5978 13.1 45.2975 12.6233 46.5438 11.67C47.7854 10.7167 48.4062 9.34947 48.4062 7.56839C48.4062 5.78732 47.7947 4.42942 46.5717 3.49471C45.3487 2.56464 43.6397 2.09961 41.4447 2.09961C39.2916 2.09961 37.6036 2.56464 36.3805 3.49471C35.1575 4.42942 34.546 5.78732 34.546 7.56839C34.546 9.34947 35.1575 10.7167 36.3805 11.67C37.6036 12.6233 39.2916 13.1 41.4447 13.1Z" fill="#EABE5C"/>
</g>
<g id="&#60;Group&#62;_5">
<g id="&#60;Group&#62;_6">
<path id="&#60;Path&#62;_4" d="M24.4041 31.885H45.0166V14.2998H38.0411V24.9095H24.4041V31.885Z" fill="#7772F2"/>
</g>
<g id="&#60;Group&#62;_7">
<path id="&#60;Path&#62;_5" d="M3.82103 37.9955H24.4336V31.02H10.7965V20.4033H3.82103V37.9955Z" fill="#7772F2"/>
</g>
</g>
<g id="&#60;Group&#62;_8">
<path id="&#60;Path&#62;_6" d="M7.41276 19.2035C5.25967 19.2035 3.56 18.7268 2.31371 17.7735C1.07208 16.8202 0.451248 15.453 0.451248 13.6719C0.451248 11.8908 1.06275 10.5353 2.28579 9.6052C3.50882 8.67048 5.21781 8.20312 7.41276 8.20312C9.56586 8.20312 11.2539 8.67048 12.477 9.6052C13.7 10.5353 14.3115 11.8908 14.3115 13.6719C14.3115 15.453 13.7 16.8202 12.477 17.7735C11.2539 18.7268 9.56586 19.2035 7.41276 19.2035Z" fill="#EABE5C"/>
</g>
</g>
</svg>
