<svg width="197" height="197" viewBox="0 0 197 197" fill="none" xmlns="http://www.w3.org/2000/svg">
<path d="M95.4677 145.089C115.538 145.089 125.573 131.451 125.573 104.176V71.3103H154.486V99.8485C156.326 108.504 159.959 117.548 165.386 126.983C170.844 136.434 180.716 150.664 195 169.674H163.328C156.388 160.488 150.751 151.771 146.415 143.521C142.096 152.036 135.936 158.788 127.936 163.779C119.936 168.753 110.228 171.241 98.8128 171.241C95.148 171.241 91.7718 170.944 88.6841 170.352C85.5963 169.775 83.3351 169.221 81.9004 168.691V143.708C85.3156 144.629 89.8381 145.089 95.4677 145.089Z" fill="#38BDF2"/>
<path d="M141.34 60.8072C134.525 60.8072 129.145 59.3024 125.199 56.2926C121.27 53.2828 119.305 48.9553 119.305 43.3101C119.305 37.6648 121.238 33.3685 125.106 30.4211C128.973 27.4737 134.385 26 141.34 26C148.155 26 153.496 27.4737 157.363 30.4211C161.231 33.3685 163.165 37.6648 163.165 43.3101C163.165 48.9553 161.231 53.2828 157.363 56.2926C153.496 59.3024 148.155 60.8072 141.34 60.8072Z" fill="#38BCF1"/>
<path d="M116.1 143.779V168.761C114.665 169.291 112.404 169.853 109.316 170.445C106.244 171.038 102.868 171.334 99.1877 171.334C87.788 171.334 78.0881 168.839 70.0881 163.849C62.088 158.874 55.9204 152.122 51.585 143.591C47.2653 151.857 41.6279 160.574 34.6727 169.744H3C17.3003 150.734 27.1717 136.511 32.6142 127.077C38.0567 117.626 41.6903 108.574 43.5148 99.9186V71.4038H72.4507V104.246C72.4507 131.521 82.478 145.159 102.533 145.159C108.178 145.159 112.7 144.699 116.1 143.779Z" fill="#F279C8"/>
<path d="M40.6391 56.3628C36.7716 53.353 34.8379 49.0255 34.8379 43.3802C34.8379 37.7506 36.7716 33.4543 40.6391 30.4913C44.5065 27.5439 49.8477 26.0702 56.6626 26.0702C63.6178 26.0702 69.0291 27.5439 72.8966 30.4913C76.764 33.4543 78.6978 37.7506 78.6978 43.3802C78.6978 49.0255 76.7328 53.353 72.803 56.3628C68.8576 59.3881 63.4774 60.9008 56.6626 60.9008C49.8477 60.9008 44.5065 59.3881 40.6391 56.3628Z" fill="#F279C8"/>
</svg>
