<svg width="528" height="523" viewBox="0 0 528 523" fill="none" xmlns="http://www.w3.org/2000/svg">
<g opacity="0.7">
<g clip-path="url(#clip0_217_2894)">
<path d="M42.9917 473.959C101.481 473.959 130.726 434.163 130.726 354.57V258.786H215.117V341.949C220.438 367.191 231.035 393.593 246.908 421.155C262.781 448.672 291.571 490.174 333.278 545.661H240.905C220.62 518.872 204.178 493.425 191.58 469.32C178.936 494.199 160.948 513.892 137.616 528.401C114.284 542.955 85.9945 550.232 52.7475 550.232C42.0138 550.232 32.1671 549.368 23.2072 547.639C14.2019 545.911 7.60703 544.297 3.42273 542.796V469.934C13.3377 472.618 26.5274 473.959 42.9917 473.959Z" fill="#AC8BD6"/>
<path d="M176.777 228.154C156.901 228.154 141.21 223.765 129.704 214.988C118.242 206.164 112.511 193.543 112.511 177.124C112.511 160.66 118.151 148.13 129.431 139.534C140.71 130.938 156.492 126.64 176.777 126.64C196.652 126.64 212.23 130.938 223.509 139.534C234.789 148.13 240.428 160.66 240.428 177.124C240.428 193.543 234.789 206.164 223.509 214.988C212.23 223.765 196.652 228.154 176.777 228.154Z" fill="#AC8BD6"/>
<path d="M288.117 404.165L172.685 349.11L200.179 291.394L315.679 346.381L288.117 404.165Z" fill="#AC8BD6"/>
<path d="M674.266 470.615V543.476C670.036 544.977 663.442 546.592 654.482 548.32C645.476 550.048 635.63 550.913 624.941 550.913C591.649 550.913 563.337 543.635 540.005 529.081C516.672 514.573 498.707 494.879 486.109 470.001C473.465 494.106 457.001 519.553 436.716 546.342H344.343C386.049 490.854 414.839 449.352 430.712 421.836C446.585 394.274 457.205 367.872 462.572 342.63V259.467H546.895V355.251C546.895 434.844 576.14 474.64 634.629 474.64C651.093 474.64 664.306 473.298 674.266 470.615Z" fill="#7772F2"/>
<path d="M454.113 215.668C442.834 206.845 437.194 194.224 437.194 177.805C437.194 161.341 442.834 148.81 454.113 140.214C465.393 131.618 480.993 127.32 500.914 127.32C521.153 127.32 536.913 131.618 548.192 140.214C559.472 148.81 565.111 161.341 565.111 177.805C565.111 194.224 559.381 206.845 547.919 215.668C536.458 224.446 520.789 228.835 500.914 228.835C480.993 228.835 465.393 224.446 454.113 215.668Z" fill="#7772F2"/>
<path d="M389.497 404.165L504.997 349.11L477.436 291.394L361.935 346.381L389.497 404.165Z" fill="#7772F2"/>
</g>
</g>
<defs>
<clipPath id="clip0_217_2894">
<rect width="670.84" height="670.84" fill="white" transform="translate(3.42261 3.42285)"/>
</clipPath>
</defs>
</svg>
