<svg width="24" height="24" viewBox="0 0 24 24" fill="none" xmlns="http://www.w3.org/2000/svg">
<g id="Icone - Dinheiro">
<path id="Vector" d="M2.5 2.5L21.5 21.5M22 12C22 17.5228 17.5228 22 12 22C6.47715 22 2 17.5228 2 12C2 6.47715 6.47715 2 12 2C17.5228 2 22 6.47715 22 12Z" stroke="#363636" stroke-width="2" stroke-linecap="round" stroke-linejoin="round"/>
<path id="Vector_2" d="M15.3333 7.83333H9.83333C9.3471 7.83333 8.88079 8.02649 8.53697 8.3703C8.19315 8.71412 8 9.18044 8 9.66667C8 10.1529 8.19315 10.6192 8.53697 10.963C8.88079 11.3068 9.3471 11.5 9.83333 11.5H13.5C13.9862 11.5 14.4525 11.6932 14.7964 12.037C15.1402 12.3808 15.3333 12.8471 15.3333 13.3333C15.3333 13.8196 15.1402 14.2859 14.7964 14.6297C14.4525 14.9735 13.9862 15.1667 13.5 15.1667H8M11.6667 17V6" stroke="#1C1C1C" stroke-width="1.83333" stroke-linecap="round" stroke-linejoin="round"/>
</g>
</svg>
