<svg width="672" height="991" viewBox="0 0 672 991" fill="none" xmlns="http://www.w3.org/2000/svg">
<g opacity="0.7">
<g clip-path="url(#clip0_218_4259)">
<path d="M581.441 788.81H425.802V368.631H581.441V788.81Z" fill="#FDC139"/>
<path d="M507.242 333.578C470.552 333.578 441.613 325.476 420.425 309.274C399.237 292.993 388.643 269.702 388.643 239.4C388.643 209.02 399.042 185.884 419.84 169.993C440.717 154.102 469.851 146.156 507.242 146.156C544.009 146.156 572.793 154.102 593.591 169.993C614.39 185.884 624.789 209.02 624.789 239.4C624.789 269.702 614.39 292.993 593.591 309.274C572.793 325.476 544.009 333.578 507.242 333.578Z" fill="#FDC139"/>
<path d="M956.052 571.595L498.95 690.194L41.8464 571.595L5.03979 713.329L492.289 839.874H505.61L992.859 713.329L956.052 571.595Z" fill="#7CCBEB"/>
</g>
</g>
<defs>
<clipPath id="clip0_218_4259">
<rect width="987.819" height="987.819" fill="white" transform="translate(5.03979)"/>
</clipPath>
</defs>
</svg>
