<svg width="917" height="1394" viewBox="0 0 917 1394" fill="none" xmlns="http://www.w3.org/2000/svg">
<g opacity="0.7">
<path d="M1049.21 979.088V1137.14C1040.03 1140.45 1025.7 1144 1006.19 1147.8C986.688 1151.52 965.325 1153.38 942.102 1153.38C869.873 1153.38 808.429 1137.6 757.769 1106.03C707.192 1074.46 668.185 1031.69 640.747 977.725C613.393 1030.04 577.733 1085.24 533.767 1143.34H333.194C423.687 1023.01 486.165 932.974 520.627 873.224C555.089 813.473 578.146 756.202 589.798 701.41V520.796H772.768V728.806C772.768 901.446 836.279 987.766 963.3 987.766C998.919 987.766 1027.55 984.873 1049.21 979.088Z" fill="#EBA3D2"/>
<path d="M571.452 425.716C546.99 406.626 534.759 379.23 534.759 343.529C534.759 307.827 546.99 280.638 571.452 261.961C595.914 243.283 629.715 233.945 672.854 233.945C716.902 233.945 751.158 243.283 775.62 261.961C800.082 280.638 812.313 307.827 812.313 343.529C812.313 379.23 799.875 406.626 775 425.716C750.125 444.807 716.076 454.352 672.854 454.352C629.715 454.352 595.914 444.807 571.452 425.716Z" fill="#EBA3D2"/>
</g>
</svg>
