<svg width="604" height="903" viewBox="0 0 604 903" fill="none" xmlns="http://www.w3.org/2000/svg">
<g opacity="0.7">
<path d="M138.449 664.822C230.415 664.822 276.398 602.333 276.398 477.354V326.757H408.88V457.524C417.312 497.183 433.961 538.628 458.829 581.86C483.839 625.164 529.071 690.369 594.526 777.475H449.396C417.598 735.387 391.766 695.442 371.901 657.641C352.107 696.657 323.881 727.598 287.223 750.464C250.566 773.259 206.084 784.657 153.777 784.657C136.984 784.657 121.514 783.299 107.365 780.584C93.2164 777.94 82.8551 775.403 76.281 772.973V658.498C91.9302 662.714 112.653 664.822 138.449 664.822Z" fill="#AC8BD6"/>
<path d="M348.644 278.63C317.417 278.63 292.764 271.734 274.685 257.943C256.678 244.152 247.674 224.322 247.674 198.455C247.674 172.587 256.535 152.9 274.257 139.395C291.978 125.889 316.774 119.137 348.644 119.137C379.871 119.137 404.345 125.889 422.066 139.395C439.788 152.9 448.649 172.587 448.649 198.455C448.649 224.322 439.788 244.152 422.066 257.943C404.345 271.734 379.871 278.63 348.644 278.63Z" fill="#AC8BD6"/>
<path d="M232.992 658.82V773.295C226.418 775.724 216.056 778.297 201.908 781.012C187.831 783.728 172.36 785.085 155.496 785.085C103.261 785.085 58.8142 773.652 22.1565 750.786C-14.5012 727.991 -42.7626 697.05 -62.6278 657.962C-82.4215 695.835 -108.253 735.779 -140.123 777.797H-285.253C-219.727 690.69 -174.494 625.52 -149.556 582.289C-124.617 538.985 -107.968 497.504 -99.607 457.845V327.185H32.9823V477.675C32.9823 602.654 78.9295 665.144 170.824 665.144C196.691 665.144 217.414 663.036 232.992 658.82Z" fill="#7CCBEB"/>
<path d="M-112.788 258.264C-130.509 244.473 -139.37 224.643 -139.37 198.776C-139.37 172.979 -130.509 153.293 -112.788 139.716C-95.0662 126.21 -70.592 119.458 -39.3651 119.458C-7.49509 119.458 17.3007 126.21 35.0221 139.716C52.7436 153.293 61.6043 172.979 61.6043 198.776C61.6043 224.643 52.6006 244.473 34.5934 258.264C16.5146 272.127 -8.13821 279.058 -39.3651 279.058C-70.592 279.058 -95.0662 272.127 -112.788 258.264Z" fill="#7CCBEB"/>
</g>
</svg>
