<svg width="25" height="25" viewBox="0 0 25 25" fill="none" xmlns="http://www.w3.org/2000/svg">
<g id="Icone - Dinheiro">
<path id="Vector" d="M3.16675 2.6126L22.1667 21.5498M22.6667 12.0812C22.6667 17.5858 18.1896 22.0481 12.6667 22.0481C7.1439 22.0481 2.66675 17.5858 2.66675 12.0812C2.66675 6.57661 7.1439 2.11426 12.6667 2.11426C18.1896 2.11426 22.6667 6.57661 22.6667 12.0812Z" stroke="#7546BC" stroke-width="2" stroke-linecap="round" stroke-linejoin="round"/>
<path id="Vector_2" d="M16.0001 7.92835H10.5001C10.0139 7.92835 9.54754 8.12086 9.20372 8.46354C8.8599 8.80622 8.66675 9.271 8.66675 9.75562C8.66675 10.2402 8.8599 10.705 9.20372 11.0477C9.54754 11.3904 10.0139 11.5829 10.5001 11.5829H14.1667C14.653 11.5829 15.1193 11.7754 15.4631 12.1181C15.8069 12.4608 16.0001 12.9255 16.0001 13.4102C16.0001 13.8948 15.8069 14.3596 15.4631 14.7022C15.1193 15.0449 14.653 15.2374 14.1667 15.2374H8.66675M12.3334 17.0647V6.10107" stroke="#7546BC" stroke-width="1.83333" stroke-linecap="round" stroke-linejoin="round"/>
</g>
</svg>
