<svg width="24" height="25" viewBox="0 0 24 25" fill="none" xmlns="http://www.w3.org/2000/svg">
<path d="M2.5 3.14285L21.5 22.1429M22 12.6429C22 18.1657 17.5228 22.6429 12 22.6429C6.47715 22.6429 2 18.1657 2 12.6429C2 7.12001 6.47715 2.64285 12 2.64285C17.5228 2.64285 22 7.12001 22 12.6429Z" stroke="#F7F7F7" stroke-width="2" stroke-linecap="round" stroke-linejoin="round"/>
<path d="M15.3333 8.47619H9.83333C9.3471 8.47619 8.88079 8.66934 8.53697 9.01316C8.19315 9.35697 8 9.82329 8 10.3095C8 10.7957 8.19315 11.2621 8.53697 11.6059C8.88079 11.9497 9.3471 12.1429 9.83333 12.1429H13.5C13.9862 12.1429 14.4525 12.336 14.7964 12.6798C15.1402 13.0236 15.3333 13.49 15.3333 13.9762C15.3333 14.4624 15.1402 14.9287 14.7964 15.2725C14.4525 15.6164 13.9862 15.8095 13.5 15.8095H8M11.6667 17.6429V6.64285" stroke="#F7F7F7" stroke-width="1.83333" stroke-linecap="round" stroke-linejoin="round"/>
</svg>
